M48
; DRILL file {KiCad 7.0.1} date Fri May 19 12:51:12 2023
; FORMAT={-:-/ absolute / metric / decimal}
; #@! TF.CreationDate,2023-05-19T12:51:12+02:00
; #@! TF.GenerationSoftware,Kicad,Pcbnew,7.0.1
; #@! TF.FileFunction,Plated,1,3,Blind
FMAT,2
METRIC
; #@! TA.AperFunction,Plated,Buried,ViaDrill
T1C0.300
%
G90
G05
T1
X83.77Y-131.36
X93.27Y-131.31
X101.88Y-129.57
X123.74Y-97.51
X134.58Y-115.8
X135.56Y-90.45
X147.78Y-109.73
X149.78Y-88.56
X154.5Y-132.25
X158.19Y-110.13
X160.57Y-105.5
X196.2Y-86.81
X200.69Y-82.31
X202.39Y-134.09
X203.04Y-92.47
X210.69Y-134.28
X215.58Y-133.72
X218.99Y-78.76
X224.08Y-133.58
X228.57Y-123.34
T0
M30
