%TF.GenerationSoftware,KiCad,Pcbnew,7.0.1*%
%TF.CreationDate,2023-05-20T11:47:41+02:00*%
%TF.ProjectId,XilinxFPGADevelopmentBoard,58696c69-6e78-4465-9047-41446576656c,rev?*%
%TF.SameCoordinates,Original*%
%TF.FileFunction,Paste,Top*%
%TF.FilePolarity,Positive*%
%FSLAX46Y46*%
G04 Gerber Fmt 4.6, Leading zero omitted, Abs format (unit mm)*
G04 Created by KiCad (PCBNEW 7.0.1) date 2023-05-20 11:47:41*
%MOMM*%
%LPD*%
G01*
G04 APERTURE LIST*
G04 Aperture macros list*
%AMRoundRect*
0 Rectangle with rounded corners*
0 $1 Rounding radius*
0 $2 $3 $4 $5 $6 $7 $8 $9 X,Y pos of 4 corners*
0 Add a 4 corners polygon primitive as box body*
4,1,4,$2,$3,$4,$5,$6,$7,$8,$9,$2,$3,0*
0 Add four circle primitives for the rounded corners*
1,1,$1+$1,$2,$3*
1,1,$1+$1,$4,$5*
1,1,$1+$1,$6,$7*
1,1,$1+$1,$8,$9*
0 Add four rect primitives between the rounded corners*
20,1,$1+$1,$2,$3,$4,$5,0*
20,1,$1+$1,$4,$5,$6,$7,0*
20,1,$1+$1,$6,$7,$8,$9,0*
20,1,$1+$1,$8,$9,$2,$3,0*%
G04 Aperture macros list end*
%ADD10RoundRect,0.079500X0.100500X-0.079500X0.100500X0.079500X-0.100500X0.079500X-0.100500X-0.079500X0*%
%ADD11RoundRect,0.079500X0.014849X-0.127279X0.127279X-0.014849X-0.014849X0.127279X-0.127279X0.014849X0*%
%ADD12RoundRect,0.250000X-0.625000X0.312500X-0.625000X-0.312500X0.625000X-0.312500X0.625000X0.312500X0*%
%ADD13RoundRect,0.079500X0.079500X0.100500X-0.079500X0.100500X-0.079500X-0.100500X0.079500X-0.100500X0*%
%ADD14RoundRect,0.079500X0.127279X0.014849X0.014849X0.127279X-0.127279X-0.014849X-0.014849X-0.127279X0*%
%ADD15RoundRect,0.079500X-0.127279X-0.014849X-0.014849X-0.127279X0.127279X0.014849X0.014849X0.127279X0*%
%ADD16RoundRect,0.079500X-0.079500X-0.100500X0.079500X-0.100500X0.079500X0.100500X-0.079500X0.100500X0*%
%ADD17RoundRect,0.079500X-0.100500X0.079500X-0.100500X-0.079500X0.100500X-0.079500X0.100500X0.079500X0*%
%ADD18RoundRect,0.250000X0.625000X-0.375000X0.625000X0.375000X-0.625000X0.375000X-0.625000X-0.375000X0*%
%ADD19RoundRect,0.079500X-0.014849X0.127279X-0.127279X0.014849X0.014849X-0.127279X0.127279X-0.014849X0*%
%ADD20R,1.500000X0.550000*%
%ADD21R,0.550000X1.500000*%
%ADD22RoundRect,0.011200X-0.602879X0.420729X0.420729X-0.602879X0.602879X-0.420729X-0.420729X0.602879X0*%
%ADD23RoundRect,0.011200X-0.420729X-0.602879X0.602879X0.420729X0.420729X0.602879X-0.602879X-0.420729X0*%
G04 APERTURE END LIST*
D10*
%TO.C,RB3*%
X175490000Y-75454669D03*
X175490000Y-74764669D03*
%TD*%
D11*
%TO.C,RZ2*%
X159156048Y-104767678D03*
X159643952Y-104279774D03*
%TD*%
D10*
%TO.C,RB0*%
X177490000Y-75454669D03*
X177490000Y-74764669D03*
%TD*%
%TO.C,RB1*%
X178490000Y-75454669D03*
X178490000Y-74764669D03*
%TD*%
%TO.C,RSYNC2*%
X166240000Y-75454669D03*
X166240000Y-74764669D03*
%TD*%
D12*
%TO.C,R1*%
X185200000Y-147042000D03*
X185200000Y-149967000D03*
%TD*%
D10*
%TO.C,R8*%
X81760000Y-131995000D03*
X81760000Y-131305000D03*
%TD*%
%TO.C,RR2*%
X160315000Y-75454669D03*
X160315000Y-74764669D03*
%TD*%
D13*
%TO.C,R19*%
X197315000Y-91060000D03*
X196625000Y-91060000D03*
%TD*%
D14*
%TO.C,C19*%
X131043952Y-113443952D03*
X130556048Y-112956048D03*
%TD*%
D10*
%TO.C,R12*%
X156000000Y-131745000D03*
X156000000Y-131055000D03*
%TD*%
D14*
%TO.C,C5*%
X135833952Y-114603952D03*
X135346048Y-114116048D03*
%TD*%
D11*
%TO.C,C9*%
X158716048Y-93403952D03*
X159203952Y-92916048D03*
%TD*%
D15*
%TO.C,RZ1*%
X157668144Y-93468144D03*
X158156048Y-93956048D03*
%TD*%
D11*
%TO.C,C15*%
X153956048Y-94443952D03*
X154443952Y-93956048D03*
%TD*%
D16*
%TO.C,R11*%
X203655000Y-92100000D03*
X204345000Y-92100000D03*
%TD*%
D15*
%TO.C,C2*%
X155912096Y-95357096D03*
X156400000Y-95845000D03*
%TD*%
D10*
%TO.C,RG1*%
X172990000Y-75454669D03*
X172990000Y-74764669D03*
%TD*%
D17*
%TO.C,R28*%
X212322733Y-131945500D03*
X212322733Y-132635500D03*
%TD*%
D15*
%TO.C,C18*%
X131808596Y-111808596D03*
X132296500Y-112296500D03*
%TD*%
D11*
%TO.C,C10*%
X126812096Y-97887904D03*
X127300000Y-97400000D03*
%TD*%
D10*
%TO.C,RG0*%
X171990000Y-75454669D03*
X171990000Y-74764669D03*
%TD*%
D11*
%TO.C,C12*%
X158506048Y-104243952D03*
X158993952Y-103756048D03*
%TD*%
D15*
%TO.C,RZ3*%
X131182322Y-112382322D03*
X131670226Y-112870226D03*
%TD*%
D17*
%TO.C,R20*%
X228322733Y-132085500D03*
X228322733Y-132775500D03*
%TD*%
D18*
%TO.C,D1*%
X185210000Y-156439500D03*
X185210000Y-153639500D03*
%TD*%
D11*
%TO.C,C7*%
X134756048Y-90243952D03*
X135243952Y-89756048D03*
%TD*%
D18*
%TO.C,D2*%
X188200000Y-156439500D03*
X188200000Y-153639500D03*
%TD*%
D10*
%TO.C,R27*%
X217122733Y-132775500D03*
X217122733Y-132085500D03*
%TD*%
D19*
%TO.C,C28*%
X134043952Y-88556048D03*
X133556048Y-89043952D03*
%TD*%
D20*
%TO.C,U2*%
X216600000Y-86300000D03*
X216600000Y-85500000D03*
X216600000Y-84700000D03*
X216600000Y-83900000D03*
X216600000Y-83100000D03*
X216600000Y-82300000D03*
X216600000Y-81500000D03*
X216600000Y-80700000D03*
X216600000Y-79900000D03*
X216600000Y-79100000D03*
X216600000Y-78300000D03*
D21*
X214900000Y-76600000D03*
X214100000Y-76600000D03*
X213300000Y-76600000D03*
X212500000Y-76600000D03*
X211700000Y-76600000D03*
X210900000Y-76600000D03*
X210100000Y-76600000D03*
X209300000Y-76600000D03*
X208500000Y-76600000D03*
X207700000Y-76600000D03*
X206900000Y-76600000D03*
D20*
X205200000Y-78300000D03*
X205200000Y-79100000D03*
X205200000Y-79900000D03*
X205200000Y-80700000D03*
X205200000Y-81500000D03*
X205200000Y-82300000D03*
X205200000Y-83100000D03*
X205200000Y-83900000D03*
X205200000Y-84700000D03*
X205200000Y-85500000D03*
X205200000Y-86300000D03*
D21*
X206900000Y-88000000D03*
X207700000Y-88000000D03*
X208500000Y-88000000D03*
X209300000Y-88000000D03*
X210100000Y-88000000D03*
X210900000Y-88000000D03*
X211700000Y-88000000D03*
X212500000Y-88000000D03*
X213300000Y-88000000D03*
X214100000Y-88000000D03*
X214900000Y-88000000D03*
%TD*%
D17*
%TO.C,R30*%
X203822733Y-131945500D03*
X203822733Y-132635500D03*
%TD*%
D10*
%TO.C,RR0*%
X162315000Y-75454669D03*
X162315000Y-74764669D03*
%TD*%
D14*
%TO.C,C4*%
X156443952Y-111043952D03*
X155956048Y-110556048D03*
%TD*%
D15*
%TO.C,C11*%
X156512096Y-94712096D03*
X157000000Y-95200000D03*
%TD*%
D10*
%TO.C,R25*%
X225322733Y-132775500D03*
X225322733Y-132085500D03*
%TD*%
D18*
%TO.C,D3*%
X191250000Y-156439500D03*
X191250000Y-153639500D03*
%TD*%
D15*
%TO.C,C3*%
X154756048Y-109356048D03*
X155243952Y-109843952D03*
%TD*%
D17*
%TO.C,R26*%
X220322733Y-132085500D03*
X220322733Y-132775500D03*
%TD*%
%TO.C,R6*%
X85360000Y-129155000D03*
X85360000Y-129845000D03*
%TD*%
D13*
%TO.C,C21*%
X211745000Y-74400000D03*
X211055000Y-74400000D03*
%TD*%
D17*
%TO.C,R9*%
X210100000Y-74455000D03*
X210100000Y-75145000D03*
%TD*%
D12*
%TO.C,R4*%
X194200000Y-147042000D03*
X194200000Y-149967000D03*
%TD*%
D15*
%TO.C,C1*%
X157094418Y-94094418D03*
X157582322Y-94582322D03*
%TD*%
D11*
%TO.C,RZ4*%
X134156048Y-89643952D03*
X134643952Y-89156048D03*
%TD*%
D22*
%TO.C,U1*%
X142042355Y-88267986D03*
X141688802Y-88621540D03*
X141335248Y-88975093D03*
X140981695Y-89328646D03*
X140628141Y-89682200D03*
X140274588Y-90035753D03*
X139921035Y-90389307D03*
X139567481Y-90742860D03*
X139213928Y-91096413D03*
X138860374Y-91449967D03*
X138506821Y-91803520D03*
X138153268Y-92157074D03*
X137799714Y-92510627D03*
X137446161Y-92864180D03*
X137092608Y-93217734D03*
X136739054Y-93571287D03*
X136385501Y-93924841D03*
X136031947Y-94278394D03*
X135678394Y-94631947D03*
X135324841Y-94985501D03*
X134971287Y-95339054D03*
X134617734Y-95692608D03*
X134264180Y-96046161D03*
X133910627Y-96399714D03*
X133557074Y-96753268D03*
X133203520Y-97106821D03*
X132849967Y-97460374D03*
X132496413Y-97813928D03*
X132142860Y-98167481D03*
X131789307Y-98521035D03*
X131435753Y-98874588D03*
X131082200Y-99228141D03*
X130728646Y-99581695D03*
X130375093Y-99935248D03*
X130021540Y-100288802D03*
X129667986Y-100642355D03*
D23*
X129667986Y-103357645D03*
X130021540Y-103711198D03*
X130375093Y-104064752D03*
X130728646Y-104418305D03*
X131082200Y-104771859D03*
X131435753Y-105125412D03*
X131789307Y-105478965D03*
X132142860Y-105832519D03*
X132496413Y-106186072D03*
X132849967Y-106539626D03*
X133203520Y-106893179D03*
X133557074Y-107246732D03*
X133910627Y-107600286D03*
X134264180Y-107953839D03*
X134617734Y-108307392D03*
X134971287Y-108660946D03*
X135324841Y-109014499D03*
X135678394Y-109368053D03*
X136031947Y-109721606D03*
X136385501Y-110075159D03*
X136739054Y-110428713D03*
X137092608Y-110782266D03*
X137446161Y-111135820D03*
X137799714Y-111489373D03*
X138153268Y-111842926D03*
X138506821Y-112196480D03*
X138860374Y-112550033D03*
X139213928Y-112903587D03*
X139567481Y-113257140D03*
X139921035Y-113610693D03*
X140274588Y-113964247D03*
X140628141Y-114317800D03*
X140981695Y-114671354D03*
X141335248Y-115024907D03*
X141688802Y-115378460D03*
X142042355Y-115732014D03*
D22*
X144757645Y-115732014D03*
X145111198Y-115378460D03*
X145464752Y-115024907D03*
X145818305Y-114671354D03*
X146171859Y-114317800D03*
X146525412Y-113964247D03*
X146878965Y-113610693D03*
X147232519Y-113257140D03*
X147586072Y-112903587D03*
X147939626Y-112550033D03*
X148293179Y-112196480D03*
X148646732Y-111842926D03*
X149000286Y-111489373D03*
X149353839Y-111135820D03*
X149707392Y-110782266D03*
X150060946Y-110428713D03*
X150414499Y-110075159D03*
X150768053Y-109721606D03*
X151121606Y-109368053D03*
X151475159Y-109014499D03*
X151828713Y-108660946D03*
X152182266Y-108307392D03*
X152535820Y-107953839D03*
X152889373Y-107600286D03*
X153242926Y-107246732D03*
X153596480Y-106893179D03*
X153950033Y-106539626D03*
X154303587Y-106186072D03*
X154657140Y-105832519D03*
X155010693Y-105478965D03*
X155364247Y-105125412D03*
X155717800Y-104771859D03*
X156071354Y-104418305D03*
X156424907Y-104064752D03*
X156778460Y-103711198D03*
X157132014Y-103357645D03*
D23*
X157132014Y-100642355D03*
X156778460Y-100288802D03*
X156424907Y-99935248D03*
X156071354Y-99581695D03*
X155717800Y-99228141D03*
X155364247Y-98874588D03*
X155010693Y-98521035D03*
X154657140Y-98167481D03*
X154303587Y-97813928D03*
X153950033Y-97460374D03*
X153596480Y-97106821D03*
X153242926Y-96753268D03*
X152889373Y-96399714D03*
X152535820Y-96046161D03*
X152182266Y-95692608D03*
X151828713Y-95339054D03*
X151475159Y-94985501D03*
X151121606Y-94631947D03*
X150768053Y-94278394D03*
X150414499Y-93924841D03*
X150060946Y-93571287D03*
X149707392Y-93217734D03*
X149353839Y-92864180D03*
X149000286Y-92510627D03*
X148646732Y-92157074D03*
X148293179Y-91803520D03*
X147939626Y-91449967D03*
X147586072Y-91096413D03*
X147232519Y-90742860D03*
X146878965Y-90389307D03*
X146525412Y-90035753D03*
X146171859Y-89682200D03*
X145818305Y-89328646D03*
X145464752Y-88975093D03*
X145111198Y-88621540D03*
X144757645Y-88267986D03*
%TD*%
D16*
%TO.C,D9*%
X193720000Y-91060000D03*
X194410000Y-91060000D03*
%TD*%
D17*
%TO.C,C22*%
X218100000Y-81555000D03*
X218100000Y-82245000D03*
%TD*%
D11*
%TO.C,C13*%
X126212096Y-97287904D03*
X126700000Y-96800000D03*
%TD*%
D10*
%TO.C,R29*%
X209022733Y-132775500D03*
X209022733Y-132085500D03*
%TD*%
D17*
%TO.C,R5*%
X105360000Y-129105000D03*
X105360000Y-129795000D03*
%TD*%
D10*
%TO.C,RG2*%
X170990000Y-75454669D03*
X170990000Y-74764669D03*
%TD*%
%TO.C,R14*%
X101760000Y-131995000D03*
X101760000Y-131305000D03*
%TD*%
D12*
%TO.C,R2*%
X188200000Y-147042000D03*
X188200000Y-149967000D03*
%TD*%
D11*
%TO.C,C14*%
X160356048Y-104643952D03*
X160843952Y-104156048D03*
%TD*%
D10*
%TO.C,R31*%
X200822733Y-132885500D03*
X200822733Y-132195500D03*
%TD*%
%TO.C,R13*%
X91760000Y-131995000D03*
X91760000Y-131305000D03*
%TD*%
D14*
%TO.C,C8*%
X136433952Y-114003952D03*
X135946048Y-113516048D03*
%TD*%
D10*
%TO.C,C20*%
X203700000Y-83145000D03*
X203700000Y-82455000D03*
%TD*%
%TO.C,RR1*%
X161315000Y-75454669D03*
X161315000Y-74764669D03*
%TD*%
D17*
%TO.C,R7*%
X95360000Y-129105000D03*
X95360000Y-129795000D03*
%TD*%
D15*
%TO.C,C16*%
X153956048Y-110156048D03*
X154443952Y-110643952D03*
%TD*%
D10*
%TO.C,RB2*%
X176490000Y-75454669D03*
X176490000Y-74764669D03*
%TD*%
D18*
%TO.C,D4*%
X194200000Y-156439500D03*
X194200000Y-153639500D03*
%TD*%
D10*
%TO.C,RG3*%
X169990000Y-75454669D03*
X169990000Y-74764669D03*
%TD*%
D14*
%TO.C,C6*%
X135233952Y-115203952D03*
X134746048Y-114716048D03*
%TD*%
D10*
%TO.C,RSYNC1*%
X165240000Y-75454669D03*
X165240000Y-74764669D03*
%TD*%
%TO.C,RR3*%
X159315000Y-75454669D03*
X159315000Y-74764669D03*
%TD*%
D15*
%TO.C,C17*%
X132456048Y-111182322D03*
X132943952Y-111670226D03*
%TD*%
D13*
%TO.C,R10*%
X200245000Y-85500000D03*
X199555000Y-85500000D03*
%TD*%
D12*
%TO.C,R3*%
X191250000Y-147042000D03*
X191250000Y-149967000D03*
%TD*%
M02*
