M48
; DRILL file {KiCad 7.0.1} date Fri May 19 12:51:12 2023
; FORMAT={-:-/ absolute / metric / decimal}
; #@! TF.CreationDate,2023-05-19T12:51:12+02:00
; #@! TF.GenerationSoftware,Kicad,Pcbnew,7.0.1
; #@! TF.FileFunction,MixedPlating,1,4
FMAT,2
METRIC
; #@! TA.AperFunction,Plated,PTH,ViaDrill
T1C0.300
; #@! TA.AperFunction,Plated,PTH,ComponentDrill
T2C0.950
; #@! TA.AperFunction,Plated,PTH,ComponentDrill
T3C1.000
; #@! TA.AperFunction,Plated,PTH,ComponentDrill
T4C1.100
; #@! TA.AperFunction,Plated,PTH,ComponentDrill
T5C1.850
; #@! TA.AperFunction,Plated,PTH,ComponentDrill
T6C2.300
; #@! TA.AperFunction,Plated,PTH,ComponentDrill
T7C3.200
; #@! TA.AperFunction,NonPlated,NPTH,ComponentDrill
T8C2.000
%
G90
G05
T1
X128.17Y-98.98
X132.6Y-101.4
X138.1Y-100.9
X139.0Y-101.6
X140.0Y-102.3
X140.6Y-118.5
X141.5Y-102.9
X141.9Y-123.0
X142.6Y-103.5
X143.3Y-84.8
X143.4Y-99.28
X146.0Y-84.4
X147.9Y-80.7
X148.7Y-87.0
X149.4Y-98.7
X150.4Y-90.7
X150.57Y-128.65
X151.92Y-128.65
X153.21Y-127.63
X155.16Y-127.88
X155.71Y-102.27
X156.11Y-101.35
X156.972Y-109.049
X157.59Y-108.36
X158.06Y-105.55
X158.12Y-106.45
X158.2Y-126.45
X160.35Y-126.1
X165.24Y-73.635
X165.62Y-127.16
X166.24Y-73.635
X168.42Y-129.31
X168.93Y-131.04
X169.0Y-127.04
X174.2Y-89.6
X180.75Y-123.58
X183.8Y-84.7
X187.3Y-95.1
X187.86Y-126.21
X191.4Y-84.7
X192.8Y-93.0
X194.7Y-76.5
X195.0Y-83.9
X202.1Y-94.3
X204.7Y-96.3
X209.7Y-80.7
X209.8Y-82.9
T2
X252.84Y-77.61
X252.84Y-79.61
X255.34Y-77.61
X255.34Y-79.61
T3
X71.875Y-106.46
X71.875Y-109.0
X71.875Y-111.54
X71.875Y-114.08
X71.875Y-116.62
X71.875Y-119.16
X71.875Y-121.7
X72.0Y-62.565
X72.0Y-65.105
X72.0Y-67.645
X72.0Y-70.185
X72.0Y-72.725
X72.0Y-75.265
X72.0Y-77.805
X72.0Y-80.345
X72.0Y-82.885
X72.0Y-85.425
X81.6Y-51.675
X84.14Y-51.675
X86.68Y-51.675
X89.22Y-51.675
X91.76Y-51.675
X94.3Y-51.675
X96.84Y-51.675
X99.38Y-51.675
X100.47Y-156.86
X101.92Y-51.675
X103.01Y-156.86
X104.46Y-51.675
X105.55Y-156.86
X108.09Y-156.86
X110.63Y-156.86
X112.635Y-51.7
X113.17Y-156.86
X115.175Y-51.7
X115.71Y-156.86
X117.715Y-51.7
X118.25Y-156.86
X120.255Y-51.7
X120.79Y-156.86
X122.795Y-51.7
X123.33Y-156.86
X125.335Y-51.7
X125.87Y-156.86
X127.875Y-51.7
X128.41Y-156.86
X130.415Y-51.7
X130.95Y-156.86
X132.955Y-51.7
X135.495Y-51.7
X137.46Y-136.84
X137.46Y-139.38
X137.46Y-141.92
X137.46Y-144.46
X137.46Y-147.0
X137.46Y-149.54
X137.46Y-152.08
X137.46Y-154.62
X137.46Y-157.16
X138.035Y-51.7
X140.0Y-136.84
X140.0Y-139.38
X140.0Y-141.92
X140.0Y-144.46
X140.0Y-147.0
X140.0Y-149.54
X140.0Y-152.08
X140.0Y-154.62
X140.0Y-157.16
X140.575Y-51.7
X148.23Y-156.79
X150.77Y-156.79
X153.31Y-156.79
X155.85Y-156.79
X158.39Y-156.79
X160.315Y-66.965
X160.93Y-156.79
X161.7Y-64.125
X163.085Y-66.965
X163.47Y-156.79
X164.47Y-64.125
X165.855Y-66.965
X166.01Y-156.79
X167.24Y-64.125
X168.55Y-156.79
X168.625Y-66.965
X170.01Y-64.125
X170.75Y-101.13
X170.75Y-103.67
X170.75Y-106.21
X170.75Y-108.75
X170.75Y-111.29
X171.09Y-156.79
X171.395Y-66.965
X172.78Y-64.125
X173.29Y-101.13
X173.29Y-103.67
X173.29Y-106.21
X173.29Y-108.75
X173.29Y-111.29
X173.63Y-156.79
X174.165Y-66.965
X175.55Y-64.125
X176.17Y-156.79
X176.935Y-66.965
X178.32Y-64.125
X179.705Y-66.965
X197.18Y-53.412
X197.18Y-55.953
X199.72Y-53.412
X199.72Y-55.953
X202.26Y-53.412
X202.26Y-55.953
X203.45Y-66.3
X204.8Y-53.412
X204.8Y-55.953
X205.99Y-66.3
X207.34Y-53.412
X207.34Y-55.953
X208.53Y-66.3
X209.88Y-53.412
X209.88Y-55.953
X211.07Y-66.3
X212.42Y-53.412
X212.42Y-55.953
X213.61Y-66.3
X216.15Y-66.3
T4
X232.95Y-97.45
X232.95Y-101.95
X232.95Y-106.0
X232.95Y-110.5
X232.95Y-114.55
X232.95Y-119.05
X232.95Y-123.1
X232.95Y-127.6
X239.45Y-97.45
X239.45Y-101.95
X239.45Y-106.0
X239.45Y-110.5
X239.45Y-114.55
X239.45Y-119.05
X239.45Y-123.1
X239.45Y-127.6
T5
X81.76Y-136.55
X81.76Y-141.25
X81.76Y-145.95
X91.76Y-136.55
X91.76Y-141.25
X91.76Y-145.95
X101.76Y-136.55
X101.76Y-141.25
X101.76Y-145.95
X200.823Y-147.53
X200.823Y-152.23
X200.823Y-156.93
X208.973Y-147.53
X208.973Y-152.23
X208.973Y-156.93
X217.123Y-147.53
X217.123Y-152.23
X217.123Y-156.93
X225.273Y-147.53
X225.273Y-152.23
X225.273Y-156.93
T6
X248.09Y-82.47
X260.09Y-82.47
T7
X153.36Y-65.545
X186.66Y-65.545
T8
X73.0Y-52.0
X73.0Y-156.0
X239.0Y-52.0
X239.0Y-156.0
T0
M30
