%TF.GenerationSoftware,KiCad,Pcbnew,7.0.1*%
%TF.CreationDate,2023-05-20T11:47:41+02:00*%
%TF.ProjectId,XilinxFPGADevelopmentBoard,58696c69-6e78-4465-9047-41446576656c,rev?*%
%TF.SameCoordinates,Original*%
%TF.FileFunction,Soldermask,Bot*%
%TF.FilePolarity,Negative*%
%FSLAX46Y46*%
G04 Gerber Fmt 4.6, Leading zero omitted, Abs format (unit mm)*
G04 Created by KiCad (PCBNEW 7.0.1) date 2023-05-20 11:47:41*
%MOMM*%
%LPD*%
G01*
G04 APERTURE LIST*
G04 Aperture macros list*
%AMRoundRect*
0 Rectangle with rounded corners*
0 $1 Rounding radius*
0 $2 $3 $4 $5 $6 $7 $8 $9 X,Y pos of 4 corners*
0 Add a 4 corners polygon primitive as box body*
4,1,4,$2,$3,$4,$5,$6,$7,$8,$9,$2,$3,0*
0 Add four circle primitives for the rounded corners*
1,1,$1+$1,$2,$3*
1,1,$1+$1,$4,$5*
1,1,$1+$1,$6,$7*
1,1,$1+$1,$8,$9*
0 Add four rect primitives between the rounded corners*
20,1,$1+$1,$2,$3,$4,$5,0*
20,1,$1+$1,$4,$5,$6,$7,0*
20,1,$1+$1,$6,$7,$8,$9,0*
20,1,$1+$1,$8,$9,$2,$3,0*%
G04 Aperture macros list end*
%ADD10C,2.000000*%
%ADD11R,1.700000X1.700000*%
%ADD12O,1.700000X1.700000*%
%ADD13R,2.775000X2.775000*%
%ADD14C,2.775000*%
%ADD15C,4.000000*%
%ADD16R,1.600000X1.600000*%
%ADD17C,1.600000*%
%ADD18RoundRect,0.250000X0.600000X-0.600000X0.600000X0.600000X-0.600000X0.600000X-0.600000X-0.600000X0*%
%ADD19C,1.700000*%
G04 APERTURE END LIST*
D10*
%TO.C,Button3*%
X239450000Y-110500000D03*
X232950000Y-110500000D03*
X239450000Y-106000000D03*
X232950000Y-106000000D03*
%TD*%
D11*
%TO.C,J5*%
X140575000Y-51700000D03*
D12*
X138035000Y-51700000D03*
X135495000Y-51700000D03*
X132955000Y-51700000D03*
X130415000Y-51700000D03*
X127875000Y-51700000D03*
X125335000Y-51700000D03*
X122795000Y-51700000D03*
X120255000Y-51700000D03*
X117715000Y-51700000D03*
X115175000Y-51700000D03*
X112635000Y-51700000D03*
%TD*%
D11*
%TO.C,J12*%
X140000000Y-136840000D03*
D12*
X137460000Y-136840000D03*
X140000000Y-139380000D03*
X137460000Y-139380000D03*
X140000000Y-141920000D03*
X137460000Y-141920000D03*
X140000000Y-144460000D03*
X137460000Y-144460000D03*
X140000000Y-147000000D03*
X137460000Y-147000000D03*
X140000000Y-149540000D03*
X137460000Y-149540000D03*
X140000000Y-152080000D03*
X137460000Y-152080000D03*
X140000000Y-154620000D03*
X137460000Y-154620000D03*
X140000000Y-157160000D03*
X137460000Y-157160000D03*
%TD*%
D10*
%TO.C,H1*%
X73000000Y-52000000D03*
%TD*%
%TO.C,H2*%
X239000000Y-52000000D03*
%TD*%
%TO.C,Button2*%
X239450000Y-119050000D03*
X232950000Y-119050000D03*
X239450000Y-114550000D03*
X232950000Y-114550000D03*
%TD*%
%TO.C,H3*%
X73000000Y-156000000D03*
%TD*%
D13*
%TO.C,SW1*%
X81760000Y-136550000D03*
D14*
X81760000Y-141250000D03*
X81760000Y-145950000D03*
%TD*%
D15*
%TO.C,J2*%
X186660000Y-65545000D03*
X153360000Y-65545000D03*
D16*
X160315000Y-66965000D03*
D17*
X163085000Y-66965000D03*
X165855000Y-66965000D03*
X168625000Y-66965000D03*
X171395000Y-66965000D03*
X174165000Y-66965000D03*
X176935000Y-66965000D03*
X179705000Y-66965000D03*
X161700000Y-64125000D03*
X164470000Y-64125000D03*
X167240000Y-64125000D03*
X170010000Y-64125000D03*
X172780000Y-64125000D03*
X175550000Y-64125000D03*
X178320000Y-64125000D03*
%TD*%
D13*
%TO.C,SW9*%
X208972733Y-147530000D03*
D14*
X208972733Y-152230000D03*
X208972733Y-156930000D03*
%TD*%
D11*
%TO.C,J8*%
X81600000Y-51675000D03*
D12*
X84140000Y-51675000D03*
X86680000Y-51675000D03*
X89220000Y-51675000D03*
X91760000Y-51675000D03*
X94300000Y-51675000D03*
X96840000Y-51675000D03*
X99380000Y-51675000D03*
X101920000Y-51675000D03*
X104460000Y-51675000D03*
%TD*%
D11*
%TO.C,J4*%
X216150000Y-66300000D03*
D12*
X213610000Y-66300000D03*
X211070000Y-66300000D03*
X208530000Y-66300000D03*
X205990000Y-66300000D03*
X203450000Y-66300000D03*
%TD*%
D11*
%TO.C,J10*%
X173290000Y-101130000D03*
D12*
X170750000Y-101130000D03*
X173290000Y-103670000D03*
X170750000Y-103670000D03*
X173290000Y-106210000D03*
X170750000Y-106210000D03*
X173290000Y-108750000D03*
X170750000Y-108750000D03*
X173290000Y-111290000D03*
X170750000Y-111290000D03*
%TD*%
D11*
%TO.C,J6*%
X71875000Y-121700000D03*
D12*
X71875000Y-119160000D03*
X71875000Y-116620000D03*
X71875000Y-114080000D03*
X71875000Y-111540000D03*
X71875000Y-109000000D03*
X71875000Y-106460000D03*
%TD*%
D13*
%TO.C,SW8*%
X217122733Y-147530000D03*
D14*
X217122733Y-152230000D03*
X217122733Y-156930000D03*
%TD*%
D11*
%TO.C,J7*%
X72000000Y-85425000D03*
D12*
X72000000Y-82885000D03*
X72000000Y-80345000D03*
X72000000Y-77805000D03*
X72000000Y-75265000D03*
X72000000Y-72725000D03*
X72000000Y-70185000D03*
X72000000Y-67645000D03*
X72000000Y-65105000D03*
X72000000Y-62565000D03*
%TD*%
D11*
%TO.C,J11*%
X148230000Y-156790000D03*
D12*
X150770000Y-156790000D03*
X153310000Y-156790000D03*
X155850000Y-156790000D03*
X158390000Y-156790000D03*
X160930000Y-156790000D03*
X163470000Y-156790000D03*
X166010000Y-156790000D03*
X168550000Y-156790000D03*
X171090000Y-156790000D03*
X173630000Y-156790000D03*
X176170000Y-156790000D03*
%TD*%
D13*
%TO.C,SW7*%
X225272733Y-147530000D03*
D14*
X225272733Y-152230000D03*
X225272733Y-156930000D03*
%TD*%
D10*
%TO.C,H4*%
X239000000Y-156000000D03*
%TD*%
D16*
%TO.C,J3*%
X255340000Y-77610000D03*
D17*
X252840000Y-77610000D03*
X252840000Y-79610000D03*
X255340000Y-79610000D03*
D15*
X260090000Y-82470000D03*
X248090000Y-82470000D03*
%TD*%
D13*
%TO.C,SW10*%
X200822733Y-147530000D03*
D14*
X200822733Y-152230000D03*
X200822733Y-156930000D03*
%TD*%
D10*
%TO.C,Button4*%
X239450000Y-101950000D03*
X232950000Y-101950000D03*
X239450000Y-97450000D03*
X232950000Y-97450000D03*
%TD*%
D13*
%TO.C,SW3*%
X101760000Y-136550000D03*
D14*
X101760000Y-141250000D03*
X101760000Y-145950000D03*
%TD*%
D18*
%TO.C,J1*%
X197180000Y-55952500D03*
D19*
X197180000Y-53412500D03*
X199720000Y-55952500D03*
X199720000Y-53412500D03*
X202260000Y-55952500D03*
X202260000Y-53412500D03*
X204800000Y-55952500D03*
X204800000Y-53412500D03*
X207340000Y-55952500D03*
X207340000Y-53412500D03*
X209880000Y-55952500D03*
X209880000Y-53412500D03*
X212420000Y-55952500D03*
X212420000Y-53412500D03*
%TD*%
D13*
%TO.C,SW2*%
X91760000Y-136550000D03*
D14*
X91760000Y-141250000D03*
X91760000Y-145950000D03*
%TD*%
D11*
%TO.C,J9*%
X130950000Y-156860000D03*
D12*
X128410000Y-156860000D03*
X125870000Y-156860000D03*
X123330000Y-156860000D03*
X120790000Y-156860000D03*
X118250000Y-156860000D03*
X115710000Y-156860000D03*
X113170000Y-156860000D03*
X110630000Y-156860000D03*
X108090000Y-156860000D03*
X105550000Y-156860000D03*
X103010000Y-156860000D03*
X100470000Y-156860000D03*
%TD*%
D10*
%TO.C,Button1*%
X239450000Y-127600000D03*
X232950000Y-127600000D03*
X239450000Y-123100000D03*
X232950000Y-123100000D03*
%TD*%
M02*
